<?xml version="1.0" standalone="no"?><svg xmlns="http://www.w3.org/2000/svg" viewBox="0 0 1440 320"><path fill="#15AABF" fill-opacity="1" d="M0,256L40,229.3C80,203,160,149,240,149.3C320,149,400,203,480,218.7C560,235,640,213,720,186.7C800,160,880,128,960,122.7C1040,117,1120,139,1200,133.3C1280,128,1360,96,1400,80L1440,64L1440,320L1400,320C1360,320,1280,320,1200,320C1120,320,1040,320,960,320C880,320,800,320,720,320C640,320,560,320,480,320C400,320,320,320,240,320C160,320,80,320,40,320L0,320Z"></path></svg>